<svg id="Layer_1" data-name="Layer 1" xmlns="http://www.w3.org/2000/svg" viewBox="0 0 26 26"><defs><style>.cls-1{fill:#007d80;}.cls-2{fill:#fff;}</style></defs><title>AL Home</title><path class="cls-1" d="M16,3A13,13,0,1,0,29,16,13,13,0,0,0,16,3Z" transform="translate(-3 -3)"/><path class="cls-2" d="M25.33,13.23,16.26,6.32a.42.42,0,0,0-.52,0L6.67,13.23a.43.43,0,0,0-.09.6.45.45,0,0,0,.35.18H9.09v9.07a.43.43,0,0,0,.43.43h13a.43.43,0,0,0,.43-.43h0V14h2.16a.44.44,0,0,0,.43-.44.42.42,0,0,0-.17-.34Zm-6.74,4.23H16.86v1.73H15.14V17.46H13.41V15.73h1.73V14h1.72v1.72h1.73Z" transform="translate(-3 -3)"/></svg>