<svg id="Layer_1" data-name="Layer 1" xmlns="http://www.w3.org/2000/svg" viewBox="0 0 26 26"><defs><style>.cls-1{fill:#5d070f;}.cls-2{fill:#fff;}</style></defs><title>BH</title><path class="cls-1" d="M16,3A13,13,0,1,0,29,16,13,13,0,0,0,16,3Z" transform="translate(-3 -3)"/><path class="cls-2" d="M22.3,11.89a7.36,7.36,0,0,0-2.21-3.81,6.5,6.5,0,0,0-3.55-1.53,5.17,5.17,0,0,0-.9,0,6.56,6.56,0,0,0-6.36,6.56v1.69L7.46,18.3H9.28v4.8L13.34,23v2.5h7.75V17a6.48,6.48,0,0,0,1.32-3.93A6.67,6.67,0,0,0,22.3,11.89Zm-3.25.56H17.17v1.88H14.91V12.45H13V10.19h1.88V8.31h2.26v1.88h1.88Z" transform="translate(-3 -3)"/></svg>