<svg id="Layer_1" data-name="Layer 1" xmlns="http://www.w3.org/2000/svg" viewBox="0 0 26 26"><defs><style>.cls-1{fill:#007d80;}.cls-2{fill:#fff;}</style></defs><title>AL Center</title><path class="cls-1" d="M16,3A13,13,0,1,0,29,16,13,13,0,0,0,16,3Z" transform="translate(-3 -3)"/><path class="cls-2" d="M25.34,13,16.26,6.11a.42.42,0,0,0-.52,0L6.66,13a.43.43,0,0,0,.26.77H9.08v9.08a.44.44,0,0,0,.44.43h13a.44.44,0,0,0,.44-.43h0V13.8h2.16a.43.43,0,0,0,.43-.43.42.42,0,0,0-.17-.34Zm-2.86-.09a.43.43,0,0,0-.43.43h0v9.08H10V13.37a.43.43,0,0,0-.43-.43H8.2L16,7l7.8,5.94Z" transform="translate(-3 -3)"/><polygon class="cls-2" points="12.13 10.8 12.13 12.53 10.41 12.53 10.41 14.26 12.13 14.26 12.13 15.99 13.87 15.99 13.87 14.26 15.59 14.26 15.59 12.53 13.87 12.53 13.87 10.8 12.13 10.8"/></svg>