<svg id="Layer_1" data-name="Layer 1" xmlns="http://www.w3.org/2000/svg" viewBox="0 0 26 26"><defs><style>.cls-1{fill:#fdee23;}.cls-2{fill:#231f20;fill-rule:evenodd;}</style></defs><title>Laboratory</title><path class="cls-1" d="M16,3A13,13,0,1,0,29,16,13,13,0,0,0,16,3Z" transform="translate(-3 -3)"/><path class="cls-2" d="M14,6.59a1.07,1.07,0,0,0-.07,2.14l0,3.77a81.06,81.06,0,0,1-3.75,7.72,5.64,5.64,0,0,0-.78,2.54,1.45,1.45,0,0,0,.45,1,2,2,0,0,0,1.13.45H21a2.07,2.07,0,0,0,1.13-.45,1.45,1.45,0,0,0,.45-1,5.64,5.64,0,0,0-.78-2.54,81.06,81.06,0,0,1-3.75-7.72l0-3.77A1.07,1.07,0,0,0,18,6.59Zm0,.8H18a.27.27,0,0,1,0,.54h-.33a.4.4,0,0,0-.4.4l0,4.24a.35.35,0,0,0,0,.14,76.77,76.77,0,0,0,3.8,7.86,5.67,5.67,0,0,1,.7,2.15.54.54,0,0,1-.19.42,1.2,1.2,0,0,1-.68.25h-9.9a1.2,1.2,0,0,1-.68-.25.54.54,0,0,1-.19-.42,5.49,5.49,0,0,1,.7-2.15,78.93,78.93,0,0,0,3.8-7.86.35.35,0,0,0,0-.14l0-4.24a.4.4,0,0,0-.4-.4H14a.27.27,0,1,1,0-.54Z" transform="translate(-3 -3)"/><path class="cls-2" d="M14.5,15.89a.42.42,0,0,0-.38.25c-.65,1.61-1.53,3.06-2,4.16a2.16,2.16,0,0,0-.26,1.49.9.9,0,0,0,.5.55,1.63,1.63,0,0,0,.81.11h5.64a1.81,1.81,0,0,0,.83-.17.94.94,0,0,0,.5-.57,2.11,2.11,0,0,0-.27-1.49c-.49-1.07-1.39-2.47-2-4.08a.4.4,0,0,0-.37-.25Z" transform="translate(-3 -3)"/><path class="cls-2" d="M15.63,8.24a.39.39,0,0,0-.39.4V12a.4.4,0,0,0,.39.41A.42.42,0,0,0,16,12h0V8.64a.4.4,0,0,0-.4-.4Z" transform="translate(-3 -3)"/></svg>