<svg id="Layer_1" data-name="Layer 1" xmlns="http://www.w3.org/2000/svg" viewBox="0 0 26 26"><defs><style>.cls-1{fill:#5d070f;}.cls-2{fill:#fff;}</style></defs><title>Laboratory_2</title><path class="cls-1" d="M16,3A13,13,0,1,0,29,16,13,13,0,0,0,16,3Z" transform="translate(-3 -3)"/><rect class="cls-2" x="15" y="17.4" width="0.86" height="5.02" transform="matrix(0.5, -0.87, 0.87, 0.5, -12.53, 20.32)"/><path class="cls-2" d="M21.82,23a6.46,6.46,0,0,0-1-10.22l2.1-3.63-.33-.19.51-.9-1.35-.78-.52.9L20.86,8l-5.15,8.92.45.26-.63,1.1,1.13.66.64-1.11.44.26,2.17-3.75A4.71,4.71,0,0,1,17.38,23H13.59v1.78H24.27V23Z" transform="translate(-3 -3)"/><path class="cls-2" d="M12.34,9.26V7.85h.18V7.51H10.93v.34h.19V9.26H9.93V7.85h.17V7.51H8.51v.34H8.7V9.26H7v7.09h7.09V9.26Zm1.12,6.49H7.57V9.86H8.7v4.53a.62.62,0,0,0,.62.62.61.61,0,0,0,.61-.62V9.86h1.19v4.53a.62.62,0,0,0,.61.62.61.61,0,0,0,.61-.62V9.86h1.12Z" transform="translate(-3 -3)"/></svg>