<svg id="Layer_1" data-name="Layer 1" xmlns="http://www.w3.org/2000/svg" viewBox="0 0 26 26"><defs><style>.cls-1{fill:#d38429;}.cls-2,.cls-3{fill:#fff;}.cls-3{fill-rule:evenodd;}</style></defs><title>NH_1</title><path class="cls-1" d="M16,3A13,13,0,1,0,29,16,13,13,0,0,0,16,3Z" transform="translate(-3 -3)"/><path class="cls-2" d="M8,13.05C7.2,13,6.46,13.81,6.5,15c0,.86,0,2.19,0,3.35,0,.58,0,1.12,0,1.54,0,.21,0,.39.07.55a.72.72,0,0,0,.21.44c1.16,1.33,2.37,2.67,3.55,4v.92a.45.45,0,0,0,.44.43h3.66a.44.44,0,0,0,.43-.42c0-.54,0-2.83,0-2.83v0a4.52,4.52,0,0,0-1.4-2.57c-.72-.78-1.54-1.5-2.12-2.06h0a2.45,2.45,0,0,0-.86-.59,1.08,1.08,0,0,0-1,.32l0,0a1.4,1.4,0,0,0-.16.26V15a2.32,2.32,0,0,0-.45-1.56A1.17,1.17,0,0,0,8,13.05Zm15.94,0a1.17,1.17,0,0,0-.83.38A2.32,2.32,0,0,0,22.69,15v3.34a1.4,1.4,0,0,0-.16-.26l0,0a1.08,1.08,0,0,0-1.05-.32,2.45,2.45,0,0,0-.86.59c-.74.73-1.52,1.41-2.12,2.06A4.52,4.52,0,0,0,17.08,23v0s0,2.29,0,2.83a.44.44,0,0,0,.43.42h3.66a.45.45,0,0,0,.44-.43v-.92c1.15-1.34,2.42-2.64,3.55-4a.72.72,0,0,0,.21-.44c0-.16.05-.34.07-.55,0-.42,0-1,.05-1.54,0-1.16,0-2.49,0-3.35,0-1.19-.7-2-1.53-1.95ZM8,13.91a.26.26,0,0,1,.23.09,1.58,1.58,0,0,1,.22,1c0,1.45,0,1.94,0,3.66a.87.87,0,0,0,.23.56,3.41,3.41,0,0,0,.39.37,18.19,18.19,0,0,1,1.87,1.75.46.46,0,0,0,.61,0,.45.45,0,0,0,0-.61c-.46-.48-.87-.85-1.31-1.3C10,19.19,10,19,10,19s0-.15.17-.34.1-.11.16-.09a2.13,2.13,0,0,1,.52.39h0c.61.59,1.42,1.29,2.08,2A4,4,0,0,1,14.06,23s0,1.57,0,2.35h-2.8v-.65a.44.44,0,0,0-.11-.29L7.5,20.35a.85.85,0,0,1,0-.09,2.92,2.92,0,0,1-.06-.44c0-.38,0-.9,0-1.47,0-1.14,0-2.47,0-3.37s.38-1.08.63-1.07Zm16,0c.25,0,.66.21.63,1.07s0,2.23,0,3.37c0,.57,0,1.09,0,1.47a2.92,2.92,0,0,1-.06.44.85.85,0,0,1,0,.09l-3.64,4.07a.44.44,0,0,0-.11.29v.65H18c0-.78,0-2.31,0-2.35A4,4,0,0,1,19.12,21c.66-.73,1.44-1.39,2.08-2a2.13,2.13,0,0,1,.52-.39c.06,0,.06,0,.16.09s.18.28.17.34-.07.21-.31.46c-.42.43-.92.88-1.31,1.3a.45.45,0,0,0,0,.61.46.46,0,0,0,.61,0,19.36,19.36,0,0,1,1.87-1.75,3.41,3.41,0,0,0,.39-.37.87.87,0,0,0,.23-.56c0-1.72,0-2.21,0-3.66a1.58,1.58,0,0,1,.22-1A.26.26,0,0,1,24,13.91Z" transform="translate(-3 -3)"/><polygon class="cls-3" points="11.26 3.25 14.74 3.25 14.74 6.7 18.19 6.7 18.19 10.17 14.74 10.17 14.74 13.62 11.26 13.62 11.26 10.17 7.81 10.17 7.81 6.7 11.26 6.7 11.26 3.25"/></svg>