<svg id="Layer_1" data-name="Layer 1" xmlns="http://www.w3.org/2000/svg" viewBox="0 0 26 26"><defs><style>.cls-1{fill:#5c0a12;}.cls-2{fill:#fff;}</style></defs><title>MED</title><path class="cls-1" d="M16,3A13,13,0,1,0,29,16,13,13,0,0,0,16,3Z" transform="translate(-3 -3)"/><path class="cls-2" d="M16.33,16.46a.66.66,0,0,1-.66-.65" transform="translate(-3 -3)"/><line class="cls-2" x1="13" y1="15.2" x2="13" y2="11.08"/><path class="cls-2" d="M17,9.08H15v4.13h0a.61.61,0,0,1-.08.32.66.66,0,0,1-.89.24L10.41,11.7,9.36,13.52l3.54,2a.59.59,0,0,1,.27.25.65.65,0,0,1-.23.89L9.37,18.76l1,1.81,3.52-2a.71.71,0,0,1,.38-.12.65.65,0,0,1,.65.65v4.12H17V19.07h0a.62.62,0,0,1,.09-.32.65.65,0,0,1,.89-.24l3.57,2.06,1-1.81L19.06,16.7h0a.59.59,0,0,1-.23-.24.64.64,0,0,1,.23-.88l3.58-2.06L21.59,11.7l-3.53,2.05" transform="translate(-3 -3)"/><path class="cls-2" d="M14.31,7.78h3.38a.66.66,0,0,1,.65.65v3.65l3.16-1.82a.66.66,0,0,1,.89.23s0,0,0,0l1.67,2.9a.65.65,0,0,1-.24.89l-3.16,1.82L23.85,18a.66.66,0,0,1,.23.89l-1.69,2.93a.65.65,0,0,1-.89.24L18.34,20.2v3.64a.66.66,0,0,1-.65.66H14.31a.66.66,0,0,1-.65-.66V20.2L10.5,22a.65.65,0,0,1-.89-.24h0L7.92,18.85A.66.66,0,0,1,8.15,18l3.17-1.82L8.16,14.32a.65.65,0,0,1-.24-.89L9.61,10.5a.65.65,0,0,1,.89-.24l3.16,1.82V8.43A.66.66,0,0,1,14.31,7.78Z" transform="translate(-3 -3)"/></svg>