<svg id="Layer_1" data-name="Layer 1" xmlns="http://www.w3.org/2000/svg" viewBox="0 0 26 26"><defs><style>.cls-1{fill:#5d070f;}.cls-2{fill:#fff;}</style></defs><title>OSC</title><path class="cls-1" d="M13,0A13,13,0,1,0,26,13,13,13,0,0,0,13,0Z"/><path class="cls-2" d="M18.5,4a3,3,0,0,0-3,3v3.42a.42.42,0,0,0,.42.43.43.43,0,0,1,.43.43v8.55a1.29,1.29,0,0,0,2.57,0V4.43A.43.43,0,0,0,18.5,4Zm-.43,15.82a.43.43,0,1,1-.85,0V11.27a1.29,1.29,0,0,0-.86-1.21V7A2.13,2.13,0,0,1,18.07,4.9Z"/><path class="cls-2" d="M18.07,4.9V19.82a.43.43,0,1,1-.85,0V11.27a1.29,1.29,0,0,0-.86-1.21V7A2.13,2.13,0,0,1,18.07,4.9Z"/><path class="cls-2" d="M12.3,15.54h-.21v-4.1l-.71-.7-.15-.15L9.64,9a.43.43,0,0,1-.12-.31V4.23A4.7,4.7,0,0,0,7.81,7.85v7.69H7.6A2.78,2.78,0,1,0,10,19.82a2.78,2.78,0,1,0,2.35-4.28Zm0,1.29a1.5,1.5,0,1,1-1.5,1.49A1.5,1.5,0,0,1,12.3,16.83Zm-4.7,3a1.5,1.5,0,1,1,1.49-1.5A1.5,1.5,0,0,1,7.6,19.82Z"/><path class="cls-2" d="M12,10.12l.12.12V7.85a4.64,4.64,0,0,0-.5-2.1,4.48,4.48,0,0,0-1.21-1.52v4.3l.85.85Z"/></svg>