<svg id="Layer_1" data-name="Layer 1" xmlns="http://www.w3.org/2000/svg" viewBox="0 0 26 26"><defs><style>.cls-1{fill:#5d070f;}.cls-2{fill:#fff;}</style></defs><title>OTC</title><path class="cls-1" d="M13,0A13,13,0,1,0,26,13,13,13,0,0,0,13,0Z"/><path class="cls-2" d="M12.65,6.26a1.7,1.7,0,1,0-1.56-1.82,1.7,1.7,0,0,0,1.56,1.82"/><path class="cls-2" d="M13.12,9.66a1.15,1.15,0,0,1-.22,2.28H9.18a.73.73,0,0,1-.73-.73.67.67,0,0,1,.06-.28l.4-.94,4.47-3.2H11.25a1.69,1.69,0,0,0-1.72.91c-.23.43-1.41,3.08-1.41,3.08a1,1,0,0,0-.09.43,1.15,1.15,0,0,0,1.15,1.14h1.45l-.43,2.82L8,21.68a1.1,1.1,0,0,0,2.08.69L12.62,15c.51.82,1.51,2.3,1.68,2.57,0,.46.41,4.54.41,4.54a1.09,1.09,0,0,0,2.18-.2l-.43-4.79a1.05,1.05,0,0,0-.16-.48l-1.86-3,.3-3.78.47,1.6a1.54,1.54,0,0,0,.53.71c.13.1,2.3,1.58,2.3,1.58a.91.91,0,0,0,.35.12.76.76,0,0,0,.52-1.37l-2.25-1.56a.44.44,0,0,1-.14-.19l-.86-3.09a1.26,1.26,0,0,0-1.21-.87H14.2Z"/><path class="cls-2" d="M12.9,11.52A.73.73,0,0,0,13,10.07l-.53,1.45Z"/></svg>